<!--
  - Alfresco Node Vault - ad aeternam documentorum conservationem
  - Copyright (C) 2025-2026 Saidone
  -
  - This program is free software: you can redistribute it and/or modify
  - it under the terms of the GNU General Public License as published by
  - the Free Software Foundation, either version 3 of the License, or
  - (at your option) any later version.
  -
  - This program is distributed in the hope that it will be useful,
  - but WITHOUT ANY WARRANTY; without even the implied warranty of
  - MERCHANTABILITY or FITNESS FOR A PARTICULAR PURPOSE.  See the
  - GNU General Public License for more details.
  -
  - You should have received a copy of the GNU General Public License
  - along with this program.  If not, see <http://www.gnu.org/licenses/>.
  -->

<svg xmlns="http://www.w3.org/2000/svg" viewBox="28 18 164 172">
    <rect x="40" y="180" width="20" height="10" rx="3" fill="#777"></rect>
    <rect x="160" y="180" width="20" height="10" rx="3" fill="#777"></rect>
    <rect x="30" y="20" width="160" height="160" rx="10" ry="10" fill="#555" stroke="#333" stroke-width="4"></rect>
    <rect x="50" y="40" width="120" height="120" rx="6" ry="6" fill="#777" stroke="#333" stroke-width="2"></rect>
    <g transform="translate(110,100) scale(0.4)">
        <circle cx="0" cy="-30" r="8" fill="#f58220"></circle>
        <circle cx="26" cy="-15" r="8" fill="#fdb813"></circle>
        <circle cx="26" cy="15" r="8" fill="#bdd63d"></circle>
        <circle cx="0" cy="30" r="8" fill="#00a651"></circle>
        <circle cx="-26" cy="15" r="8" fill="#00b5e2"></circle>
        <circle cx="-26" cy="-15" r="8" fill="#0071bc"></circle>
        <circle cx="0" cy="0" r="14" fill="#ccc"></circle>
    </g>
    <line x1="110" y1="80" x2="110" y2="120" stroke="#ccc" stroke-width="3"></line>
    <line x1="90" y1="100" x2="130" y2="100" stroke="#ccc" stroke-width="3"></line>
    <circle cx="110" cy="100" r="20" fill="none" stroke="#ccc" stroke-width="3"></circle>
    <rect x="42" y="60" width="7" height="20" rx="2" fill="#777"></rect>
    <rect x="42" y="120" width="7" height="20" rx="2" fill="#777"></rect>
</svg>