<svg width="220" height="240" viewBox="0 0 220 240" xmlns="http://www.w3.org/2000/svg">
    <rect x="30" y="20" width="160" height="160" rx="10" ry="10" fill="#555" stroke="#333" stroke-width="4"/>
    <rect x="50" y="40" width="120" height="120" rx="6" ry="6" fill="#777" stroke="#444" stroke-width="2"/>

    <circle cx="110" cy="100" r="20" fill="#444" stroke="#222" stroke-width="2"/>
    <line x1="110" y1="80" x2="110" y2="120" stroke="#ccc" stroke-width="2"/>
    <line x1="90" y1="100" x2="130" y2="100" stroke="#ccc" stroke-width="2"/>

    <g transform="translate(110,100) scale(0.4)">
        <circle cx="0" cy="-30" r="10" fill="#f58220"/>
        <circle cx="26" cy="-15" r="10" fill="#fdb813"/>
        <circle cx="26" cy="15" r="10" fill="#bdd63d"/>
        <circle cx="0" cy="30" r="10" fill="#00a651"/>
        <circle cx="-26" cy="15" r="10" fill="#00b5e2"/>
        <circle cx="-26" cy="-15" r="10" fill="#0071bc"/>
        <circle cx="0" cy="0" r="10" fill="#ffffff"/>
    </g>

    <rect x="42" y="60" width="7" height="20" rx="2" fill="#999" />
    <rect x="42" y="120" width="7" height="20" rx="2" fill="#999" />

    <rect x="40" y="182" width="20" height="15" rx="3" fill="#444"/>
    <rect x="160" y="182" width="20" height="15" rx="3" fill="#444"/>
</svg>
